<?xml version="1.0" standalone="no"?>
<!DOCTYPE svg PUBLIC "-//W3C//DTD SVG 20010904//EN"
 "http://www.w3.org/TR/2001/REC-SVG-20010904/DTD/svg10.dtd">
<svg version="1.0" xmlns="http://www.w3.org/2000/svg"
 width="400.000000pt" height="400.000000pt" viewBox="0 0 400.000000 400.000000"
 preserveAspectRatio="xMidYMid meet">
<metadata>
Created by potrace 1.14, written by Peter Selinger 2001-2017
</metadata>
<g transform="translate(0.000000,400.000000) scale(0.100000,-0.100000)"
fill="#000000" stroke="none">
<path d="M0 2000 l0 -2000 2000 0 2000 0 0 2000 0 2000 -2000 0 -2000 0 0
-2000z m1746 910 c241 -61 435 -226 500 -427 l28 -87 32 105 c62 205 103 345
114 387 l11 42 469 0 470 0 0 -32 c0 -58 -22 -163 -42 -198 -26 -47 -72 -78
-137 -90 -30 -5 -163 -10 -296 -10 l-241 0 -29 -97 c-44 -154 -64 -227 -62
-229 1 -1 22 2 47 6 82 16 231 11 314 -10 254 -65 388 -249 373 -515 -23 -406
-351 -695 -790 -695 -181 0 -326 51 -466 164 l-77 62 -44 -32 c-102 -74 -209
-124 -350 -166 -71 -21 -96 -22 -507 -26 -308 -2 -433 0 -433 8 0 6 18 155 40
333 22 177 49 396 61 487 11 91 26 215 34 275 8 61 19 148 25 195 22 196 50
420 59 485 6 39 11 73 11 78 0 4 182 7 403 7 370 0 410 -2 483 -20z"/>
<path d="M1236 2578 c-3 -18 -10 -76 -16 -128 -5 -52 -14 -129 -20 -170 -6
-41 -15 -113 -20 -160 -5 -47 -16 -141 -24 -210 -9 -69 -25 -199 -36 -290 -11
-91 -23 -182 -25 -202 l-5 -38 154 0 c182 0 237 9 333 54 98 47 175 126 231
236 69 139 85 215 86 420 1 166 -1 179 -26 247 -46 125 -100 188 -205 240 -56
27 -64 28 -239 31 l-181 4 -7 -34z"/>
<path d="M2540 1984 c-14 -3 -55 -12 -92 -20 -53 -13 -75 -14 -99 -5 -46 16
-49 15 -49 -23 0 -64 -51 -231 -103 -336 -28 -58 -53 -109 -55 -114 -2 -4 6
-4 19 0 48 17 85 8 170 -43 112 -68 142 -76 258 -71 83 3 103 8 149 33 96 52
151 138 171 265 22 139 -17 240 -112 288 -38 20 -65 25 -140 28 -50 1 -103 0
-117 -2z"/>
</g>
</svg>
